<svg xmlns="http://www.w3.org/2000/svg" viewBox="0 0 64 64" role="img" aria-label="ClearVault">
  <rect width="64" height="64" rx="14" fill="#0a0a0a"/>
  <rect x="4" y="4" width="56" height="56" rx="11" fill="#111111" stroke="#00cdb8" stroke-width="2"/>
  <path d="M14 31.8C14 21.7 20.7 15 30.1 15c4.1 0 7.4 1.1 10.2 3.3l-4.1 5.5c-1.6-1.3-3.5-2-5.8-2-5.2 0-8.4 3.9-8.4 10s3.3 10.1 8.4 10.1c2.5 0 4.7-.9 6.3-2.4l4 5.3c-2.7 2.5-6.4 3.9-10.9 3.9C20.5 48.7 14 42.1 14 31.8z" fill="#f5fffd"/>
  <path d="M37.7 15.7h8.5l5.1 20.1 5.1-20.1H64L55 48h-7.5L37.7 15.7z" fill="#00cdb8"/>
</svg>
